<svg xmlns="http://www.w3.org/2000/svg" xmlns:xlink="http://www.w3.org/1999/xlink" version="1.1" x="0px" y="0px" viewBox="0 0 100 125" enable-background="new 0 0 100 100" xml:space="preserve"><g><path fill="#14e329" d="M52.882,53.729c-0.112-0.259-0.32-0.364-0.529-0.364h-3.98c-0.209,0-0.418,0.105-0.528,0.364l-1.298,3.022   c-0.313,0.733,0.782,1.202,1.095,0.472l1-2.334c0.037-0.065,0.099-0.091,0.181-0.073c0.086,0.018,0.136,0.069,0.141,0.148   l0.001,8.101c0,0.813,1.223,0.813,1.223,0v-4.66c0.002-0.12,0.065-0.186,0.176-0.186c0.11,0,0.173,0.065,0.175,0.186v4.66   c0,0.813,1.223,0.813,1.223,0v-8.101c0.005-0.079,0.055-0.131,0.142-0.148c0.081-0.018,0.145,0.008,0.181,0.073l1.001,2.334   c0.312,0.73,1.409,0.262,1.094-0.472L52.882,53.729z"/><path fill="#14e329" d="M52.723,99.459h0.63V58.154c-0.236-0.052-0.459-0.185-0.63-0.408V99.459z"/><polygon fill="#14e329" points="47.319,53.45 47.319,36.734 46.43,36.734 46.43,55.518 47.297,53.498  "/><path fill="#000000" d="M51.632,99.459h0.449V63.873c-0.127,0.143-0.282,0.247-0.449,0.314V99.459z"/><path fill="#000000" d="M45.303,99.459h0.775V57.634c-0.199-0.293-0.264-0.682-0.078-1.111l0.078-0.186V36.734h-0.775V99.459z"/><rect x="44.287" y="36.734" fill="#14e329" width="0.664" height="62.725"/><path fill="#000000" d="M50.86,99.459h0.238V64.281c-0.077-0.008-0.161-0.022-0.238-0.042V99.459z"/><path fill="#000000" d="M48.304,37.489h-0.775v15.648c0.21-0.228,0.489-0.347,0.775-0.362V37.489z"/><path fill="#000000" d="M47.528,58.112v41.347h0.775V57.172l-0.121,0.287C48.033,57.804,47.796,58.014,47.528,58.112z"/><path fill="#000000" d="M48.943,50.939c0.19-0.279,0.459-0.498,0.776-0.628V36.734h-0.776V50.939z"/><polygon fill="#000000" points="53.705,54.105 54.481,55.917 54.481,36.734 53.705,36.734  "/><path fill="#000000" d="M54.831,56.828c0.025,0.138,0.024,0.269,0,0.392v42.239h0.776V36.734h-0.776V56.828z"/><rect x="55.961" y="36.734" fill="#000000" width="0.384" height="62.725"/><path fill="#000000" d="M67.741,12.77C65.08,5.629,58.202,0.542,50.131,0.542c-8.068,0-14.949,5.087-17.608,12.228   c-15.28,2.06-26.825,6.724-30.128,12.425h13.46c0.928,2.519,3.347,4.315,6.187,4.315s5.26-1.796,6.188-4.315h12.638l-3.642,4.672   c-0.493,0.103-0.889,0.508-0.954,1.037c-0.082,0.662,0.39,1.265,1.052,1.347c0.374,0.045,0.729-0.085,0.982-0.325l4.872,2.087   c0.042,0.44,0.385,0.809,0.842,0.865c0.101,0.012,0.199,0.008,0.294-0.009c-0.242,0.351-0.379,0.75-0.379,1.199h6.322h6.324   c0-0.449-0.138-0.848-0.38-1.199c0.095,0.017,0.193,0.021,0.292,0.009c0.459-0.057,0.802-0.425,0.844-0.865l4.871-2.087   c0.254,0.24,0.608,0.371,0.982,0.325c0.662-0.082,1.133-0.685,1.051-1.347c-0.065-0.528-0.46-0.934-0.954-1.037l-3.641-4.672   h12.373c0.927,2.519,3.348,4.315,6.188,4.315c2.838,0,5.261-1.796,6.187-4.315h13.476C94.565,19.494,83.021,14.83,67.741,12.77z    M37.401,31.619c-0.313-0.039-0.536-0.325-0.498-0.637c0.039-0.314,0.324-0.537,0.638-0.499c0.313,0.039,0.537,0.325,0.498,0.638   S37.715,31.657,37.401,31.619z M44.085,34.344c-0.234-0.03-0.4-0.242-0.372-0.476c0.029-0.233,0.242-0.4,0.475-0.372   c0.235,0.029,0.4,0.242,0.372,0.476C44.533,34.206,44.319,34.373,44.085,34.344z M46.184,32.67   c-0.002,0.501-0.271,0.938-0.675,1.171c-0.15,0.084-0.292,0.174-0.426,0.27c0.004-0.024,0.008-0.048,0.011-0.072   c0.064-0.529-0.311-1.01-0.84-1.075c-0.229-0.027-0.449,0.027-0.63,0.141l-4.947-2.119l4.497-5.79h0.76   c0.034,0.928,0.664,1.636,1.574,2.146c0.404,0.234,0.672,0.669,0.675,1.171V32.67z M62.972,30.483   c0.314-0.039,0.6,0.185,0.64,0.499c0.036,0.312-0.186,0.599-0.5,0.637c-0.312,0.039-0.598-0.184-0.638-0.498   C62.437,30.808,62.659,30.522,62.972,30.483z M56.428,34.344c-0.232,0.029-0.447-0.138-0.476-0.372   c-0.029-0.234,0.138-0.446,0.372-0.476c0.233-0.029,0.447,0.138,0.475,0.372C56.829,34.102,56.662,34.314,56.428,34.344z    M61.837,30.966l-4.948,2.138c-0.181-0.114-0.401-0.168-0.631-0.141c-0.527,0.065-0.903,0.546-0.839,1.075   c0.003,0.024,0.008,0.048,0.011,0.072c-0.132-0.096-0.274-0.185-0.425-0.27c-0.405-0.233-0.672-0.67-0.675-1.171v-4.158   c0.003-0.501,0.27-0.937,0.675-1.171c0.91-0.51,1.539-1.218,1.573-2.146h0.761L61.837,30.966z"/><path fill="#000000" d="M52.081,52.773v-0.63l-0.009,0.063c-0.035,0.202-0.105,0.395-0.204,0.566H52.081z"/><path fill="#000000" d="M52.081,37.268h-0.449v13.464c0.238,0.256,0.398,0.584,0.449,0.946V37.268z"/><path fill="#000000" d="M53.353,53.324v-16.59h-0.63v16.093C52.972,52.908,53.196,53.072,53.353,53.324z"/><path fill="#14e329" d="M51.099,36.734h-0.921v13.461c0.062-0.007,0.127-0.01,0.192-0.01c0.261,0,0.508,0.058,0.729,0.161V36.734z"/><circle fill="#000000" cx="50.373" cy="51.912" r="1.136"/></g><text x="0" y="115" fill="#000000" font-size="5px" font-weight="bold" font-family="'Megim', Helvetica, Arial-Unicode, Arial, Sans-serif">Sssh!!</text><text x="0" y="120" fill="#000000" font-size="5px" font-weight="bold" font-family="'Megim', Helvetica, Arial-Unicode, Arial, Sans-serif">They're watchin'....</text></svg>